<?xml version="1.0" standalone="no"?>
<!DOCTYPE svg PUBLIC "-//W3C//DTD SVG 20010904//EN"
 "http://www.w3.org/TR/2001/REC-SVG-20010904/DTD/svg10.dtd">
<svg version="1.0" xmlns="http://www.w3.org/2000/svg"
 width="9040.000000pt" height="4096.000000pt" viewBox="0 0 9040.000000 4096.000000"
 preserveAspectRatio="xMidYMid meet">
<metadata>
Created by potrace 1.16, written by Peter Selinger 2001-2019
</metadata>
<g transform="translate(0.000000,4096.000000) scale(0.100000,-0.100000)"
fill="#000000" stroke="none">
<path d="M18215 39469 c-3856 -159 -7521 -1463 -10605 -3773 -1106 -829 -2128
-1787 -3048 -2856 -844 -982 -1631 -2121 -2254 -3265 -1302 -2389 -2067 -4997
-2262 -7710 -37 -506 -41 -648 -41 -1385 0 -737 4 -879 41 -1385 291 -4054
1873 -7898 4519 -10978 604 -704 1302 -1405 1990 -2002 1214 -1053 2556 -1947
3990 -2660 2220 -1103 4596 -1752 7070 -1929 506 -37 648 -41 1385 -41 737 0
879 4 1385 41 3566 256 6958 1504 9850 3623 550 402 1099 855 1635 1345 226
206 910 890 1116 1116 1492 1630 2651 3424 3506 5425 833 1948 1339 4084 1473
6210 27 435 35 714 35 1235 0 522 -8 802 -35 1235 -228 3608 -1488 7076 -3634
10000 -857 1168 -1852 2241 -2971 3203 -1605 1380 -3498 2515 -5473 3281
-1966 763 -3996 1183 -6142 1271 -276 11 -1249 11 -1530 -1z m1490 -2010
c4257 -169 8283 -1936 11310 -4964 2915 -2915 4661 -6749 4940 -10850 50 -737
50 -1593 0 -2330 -223 -3268 -1373 -6371 -3333 -8995 -1820 -2435 -4255 -4340
-7044 -5513 -1719 -723 -3540 -1155 -5413 -1282 -742 -50 -1587 -50 -2330 0
-2935 199 -5739 1147 -8195 2770 -2173 1436 -4006 3372 -5320 5620 -1322 2261
-2096 4780 -2275 7400 -50 745 -50 1585 0 2330 279 4102 2025 7935 4940 10850
2380 2380 5387 3993 8670 4650 1325 265 2668 369 4050 314z"/>
<path d="M24540 34535 c-938 -117 -1747 -640 -2227 -1440 -174 -289 -303 -623
-369 -955 -75 -378 -74 -830 5 -1205 21 -101 4660 -17424 4722 -17635 207
-697 661 -1295 1281 -1686 119 -75 381 -206 515 -258 189 -73 429 -136 653
-172 163 -25 576 -31 760 -9 687 79 1306 374 1785 851 424 422 712 956 830
1539 75 368 75 813 1 1185 -23 112 -4648 17392 -4727 17660 -309 1042 -1164
1838 -2229 2073 -226 51 -310 59 -605 63 -201 2 -312 -1 -395 -11z"/>
<path d="M21210 23295 c-1261 -158 -2271 -1053 -2570 -2277 -62 -255 -75 -373
-75 -703 0 -306 4 -355 47 -580 18 -98 2105 -7909 2158 -8078 12 -38 46 -130
76 -205 408 -1016 1345 -1729 2440 -1857 168 -20 509 -20 679 0 359 41 662
130 990 290 806 393 1389 1123 1600 2005 52 219 67 348 72 630 4 231 2 286
-16 430 -12 91 -34 221 -50 290 -33 140 -2072 7757 -2127 7945 -94 320 -267
659 -475 935 -473 625 -1154 1032 -1944 1161 -172 28 -629 36 -805 14z"/>
<path d="M15640 20754 c-249 -28 -463 -73 -664 -139 -997 -325 -1746 -1140
-1991 -2165 -51 -216 -67 -349 -72 -620 -6 -281 7 -444 52 -662 31 -153 1865
-6997 1912 -7136 340 -1010 1199 -1765 2249 -1977 227 -46 373 -58 659 -52
262 5 345 14 560 58 598 124 1179 455 1587 904 373 410 625 906 733 1440 75
369 75 818 0 1186 -31 155 -1864 6993 -1913 7139 -327 970 -1135 1707 -2137
1951 -241 58 -355 71 -660 74 -154 2 -296 1 -315 -1z"/>
<path d="M9946 18200 c-1293 -146 -2330 -1068 -2616 -2328 -57 -250 -65 -331
-65 -657 0 -313 5 -368 51 -599 23 -114 1563 -5886 1625 -6091 144 -471 388
-876 748 -1236 467 -467 1015 -745 1675 -851 124 -20 177 -23 441 -23 314 0
368 5 605 52 259 52 497 133 740 254 829 412 1419 1181 1605 2095 75 364 75
816 1 1184 -32 157 -1597 6002 -1651 6165 -107 322 -257 605 -474 890 -96 126
-386 419 -511 515 -432 331 -877 525 -1405 611 -106 17 -183 22 -410 24 -154
2 -315 -1 -359 -5z"/>
<path d="M75290 28346 c-205 -36 -404 -108 -655 -236 -219 -111 -437 -246
-626 -387 -205 -152 -295 -230 -445 -386 -252 -260 -387 -502 -425 -762 -36
-253 77 -591 339 -1015 39 -63 1097 -1649 2352 -3525 l2280 -3409 0 -2101 c0
-2354 3 -2489 61 -2717 44 -175 163 -435 255 -555 185 -242 491 -365 1046
-419 211 -21 745 -24 948 -5 579 53 887 169 1088 411 103 125 249 456 281 640
33 187 34 273 38 2507 l4 2241 2284 3417 c1257 1878 2316 3467 2355 3530 244
399 356 718 335 954 -37 402 -325 799 -880 1211 -304 227 -783 474 -1090 563
-302 88 -571 73 -795 -43 -179 -94 -412 -298 -547 -480 -151 -203 -350 -517
-1908 -3012 -886 -1418 -1612 -2578 -1615 -2578 -3 0 -725 1153 -1605 2562
-880 1409 -1651 2638 -1713 2731 -241 362 -358 497 -567 655 -116 88 -270 170
-370 197 -81 23 -325 29 -425 11z"/>
<path d="M64325 28313 c-1012 -52 -1976 -318 -2939 -811 -1116 -572 -2059
-1387 -2742 -2372 -531 -764 -962 -1722 -1194 -2649 -252 -1009 -320 -2152
-190 -3186 141 -1115 512 -2147 1111 -3088 497 -782 1216 -1562 1958 -2125
1166 -886 2484 -1366 4011 -1462 209 -13 828 -13 1025 0 1627 108 3000 683
4230 1773 146 130 478 460 629 627 1517 1673 2200 3658 2065 6000 -100 1739
-679 3251 -1721 4496 -173 206 -331 376 -559 599 -1502 1472 -3307 2216 -5349
2203 -151 -1 -302 -3 -335 -5z m915 -3721 c791 -119 1435 -442 2108 -1055 549
-500 930 -1136 1115 -1862 222 -867 190 -1907 -81 -2732 -215 -651 -585 -1199
-1122 -1662 -658 -568 -1339 -872 -2150 -962 -172 -19 -584 -17 -760 5 -653
79 -1241 320 -1795 736 -796 599 -1298 1330 -1524 2221 -228 902 -172 1989
145 2816 204 534 490 963 915 1378 692 675 1437 1038 2329 1134 47 5 220 8
385 6 237 -2 328 -7 435 -23z"/>
<path d="M43740 28249 c-282 -33 -584 -137 -1000 -345 -412 -206 -661 -374
-875 -588 -293 -294 -400 -585 -340 -927 30 -175 115 -425 235 -694 51 -114
5100 -10367 5739 -11654 131 -265 210 -391 321 -516 217 -243 538 -451 855
-554 246 -80 364 -94 743 -88 250 4 313 8 397 26 299 62 623 217 861 412 165
135 336 337 424 501 77 143 5803 11767 5859 11893 149 335 228 599 238 797 15
304 -89 542 -356 808 -216 215 -463 380 -882 590 -423 211 -713 308 -1014 341
-275 29 -535 -31 -730 -169 -276 -194 -415 -391 -640 -899 -36 -82 -998 -2190
-2138 -4687 l-2072 -4539 -64 134 c-74 158 -468 1011 -1586 3439 -1148 2493
-1324 2877 -2285 5000 -305 672 -473 990 -674 1269 -183 253 -309 354 -518
415 -148 43 -323 55 -498 35z"/>
</g>
</svg>
